<svg width="853.228" height="211.614" xmlns="http://www.w3.org/2000/svg" version="1.1">
 <defs>
  <clipPath id="clip_0">
   <path d="m-4.97253,-189.29229l853.228,0l0,606.614l-853.228,0l0,-606.614z" id="svg_1"/>
  </clipPath>
  <clipPath id="clip_1">
   <path d="m343.22747,86.67171l92.714,0l0,-63.892l-92.714,0l0,63.892z" id="svg_2"/>
  </clipPath>
  <clipPath id="clip_2">
   <path d="m365.17747,149.21971l59.826,0l0,-77.696l-59.826,0l0,77.696z" id="svg_3"/>
  </clipPath>
 </defs>
 <g>
  <title>Layer 1</title>
  <g id="svg_4">
   <g id="layer_1">
    <g clip-path="url(#clip_0)" id="svg_5">
     <g opacity="0.66" id="svg_6">
      <g clip-path="url(#clip_1)" id="svg_7">
       <path d="m362.74656,85.3511c5.504,-3.12 10.87,-6.472 16.087,-10.049c1.838,-1.26 3.213,-2.7 4.092,-4.782c0.839,-1.987 1.187,-4.401 0.504,-6.511c-0.534,-1.65 -1.399,-3.136 -2.572,-4.413c-1.544,-1.682 -4.757,-3.14 -7.071,-2.929c-2.269,0.208 -4.537,0.415 -6.806,0.623c-2.126,0.194 -4.372,0.622 -6.504,0.515c0.886,0.119 1.772,0.238 2.658,0.357c-0.254,-0.024 -0.495,-0.092 -0.725,-0.202l2.388,1.008c-0.092,-0.057 -0.184,-0.114 -0.276,-0.171c0.675,0.521 1.35,1.042 2.024,1.563c-0.17,-0.129 -0.315,-0.281 -0.437,-0.457l1.564,2.024c-0.124,-0.18 -0.227,-0.372 -0.307,-0.575l1.008,2.389c-0.194,-0.543 -0.303,-1.085 -0.382,-1.655c0.119,0.886 0.238,1.773 0.357,2.659c-0.499,-4.008 -0.766,-8.04 -0.767,-12.078c0,-1.772 0.182,-3.573 0.039,-5.337c-0.192,-2.368 -0.616,-4.288 -1.928,-6.319c-1.317,-2.04 -2.998,-3.246 -4.917,-4.65c0.675,0.521 1.349,1.042 2.024,1.564c-0.426,-0.345 -0.792,-0.716 -1.133,-1.145c0.521,0.675 1.043,1.35 1.564,2.024c-0.316,-0.444 -0.575,-0.898 -0.797,-1.395l1.008,2.389c-0.241,-0.612 -0.403,-1.223 -0.5,-1.874c0.119,0.886 0.238,1.772 0.357,2.658c-0.068,-0.654 -0.065,-1.287 0.014,-1.941c-0.119,0.886 -0.238,1.772 -0.357,2.658c0.09,-0.537 0.225,-1.043 0.417,-1.553l-1.008,2.389c0.218,-0.501 0.475,-0.954 0.795,-1.397c-0.522,0.675 -1.043,1.35 -1.564,2.024c0.381,-0.468 0.795,-0.867 1.267,-1.24c-0.674,0.521 -1.349,1.042 -2.023,1.563c0.499,-0.354 1.011,-0.645 1.568,-0.898l-2.389,1.008c0.809,-0.326 1.618,-0.538 2.48,-0.669c-0.886,0.119 -1.772,0.239 -2.658,0.358c1.018,-0.118 2.011,-0.105 3.028,0.015c-0.886,-0.119 -1.772,-0.238 -2.658,-0.357c1.918,0.289 3.725,0.913 5.511,1.654c-0.796,-0.336 -1.592,-0.672 -2.388,-1.008c1.531,0.652 3.129,1.271 4.505,2.221c-0.675,-0.521 -1.35,-1.042 -2.024,-1.563c0.424,0.333 0.781,0.679 1.116,1.101l-1.563,-2.023c0.218,0.333 0.391,0.652 0.557,1.014l-1.008,-2.388c1.121,2.904 1.603,6.183 2.206,9.229c0.646,3.263 1.186,6.546 1.634,9.843c-0.119,-0.886 -0.238,-1.772 -0.358,-2.658c0.107,0.804 0.209,1.609 0.306,2.415c4.22,-3.215 8.439,-6.429 12.659,-9.643c-0.81,-0.253 -1.605,-0.538 -2.392,-0.855l2.389,1.008c-2.221,-0.94 -4.288,-2.145 -6.199,-3.617c0.675,0.521 1.349,1.042 2.024,1.564c-0.442,-0.353 -0.874,-0.714 -1.299,-1.087c-0.674,5.235 -1.349,10.47 -2.023,15.705c0.795,-0.381 1.592,-0.755 2.402,-1.103l-2.389,1.008c1.224,-0.503 2.458,-0.905 3.766,-1.119c-0.886,0.12 -1.772,0.239 -2.659,0.358c0.867,-0.105 1.691,-0.113 2.557,0.001c-0.886,-0.119 -1.773,-0.238 -2.659,-0.357c0.587,0.103 1.142,0.252 1.699,0.464l-2.389,-1.008c0.538,0.237 1.022,0.514 1.492,0.867c-0.675,-0.521 -1.35,-1.042 -2.024,-1.563c0.358,0.306 0.665,0.626 0.954,0.998c-0.521,-0.674 -1.042,-1.349 -1.563,-2.024c0.26,0.387 0.473,0.778 0.664,1.203c-0.336,-0.797 -0.672,-1.593 -1.008,-2.389c0.604,1.526 0.806,3.163 1.332,4.714c1.27,3.737 3.411,6.733 6.793,8.872c2.136,1.352 4.778,2.112 7.267,2.517c2.88,0.469 5.76,0.815 8.678,0.691c-1.682,-6.212 -3.365,-12.423 -5.047,-18.635c-0.272,0.125 -0.547,0.245 -0.823,0.361l2.389,-1.008c-2.094,0.853 -4.248,1.439 -6.485,1.769c0.886,-0.119 1.772,-0.238 2.659,-0.357c-1.74,0.226 -3.517,0.347 -5.266,0.162c0.887,0.119 1.773,0.238 2.659,0.357c-0.415,-0.068 -0.785,-0.155 -1.184,-0.288l2.388,1.008c-0.367,-0.164 -0.664,-0.333 -0.984,-0.576l2.024,1.564c-0.167,-0.142 -0.319,-0.299 -0.455,-0.471c0.521,0.675 1.043,1.35 1.564,2.024c-0.198,-0.274 -0.35,-0.532 -0.498,-0.836c0.336,0.797 0.672,1.593 1.008,2.389c-0.212,-0.537 -0.338,-1.067 -0.418,-1.637c0.119,0.887 0.238,1.773 0.357,2.659c-0.12,-1.262 0.006,-2.492 0.171,-3.744c-0.119,0.886 -0.238,1.772 -0.357,2.659c0.564,-4.023 1.531,-7.96 2.896,-11.786c-4.897,1.992 -9.793,3.984 -14.69,5.976c6.289,4.597 15.282,5.726 22.68,3.577c4.177,-1.214 7.936,-3.425 11.084,-6.417c1.567,-1.489 2.928,-3.275 4.105,-5.073c0.859,-1.311 1.371,-2.802 2.225,-4.108c-0.521,0.675 -1.042,1.35 -1.563,2.024c0.249,-0.321 0.484,-0.569 0.794,-0.833c-0.675,0.521 -1.349,1.043 -2.024,1.564c0.341,-0.234 0.666,-0.419 1.039,-0.598l-2.389,1.008c4.124,-1.719 8.634,-2.787 12.99,-3.732l-12.302,-6.984c0.249,1.291 0.484,2.584 0.668,3.887c-0.119,-0.886 -0.238,-1.773 -0.357,-2.659c0.261,2.016 0.368,4.022 0.103,6.044c0.119,-0.886 0.238,-1.772 0.357,-2.659c-0.16,0.994 -0.403,1.937 -0.76,2.878c0.336,-0.796 0.672,-1.592 1.008,-2.389c-0.435,1.027 -0.974,1.968 -1.647,2.857c0.521,-0.675 1.042,-1.349 1.563,-2.024c-0.833,1.051 -1.794,1.96 -2.849,2.786c0.675,-0.521 1.35,-1.043 2.024,-1.564c-3.18,2.42 -6.886,3.982 -10.35,5.932c-4.594,2.586 -9.068,6.117 -11.516,10.899c-1.655,3.233 -1.884,6.875 0,10.094c1.842,3.148 5.066,4.791 8.635,4.953c6.592,0.299 12.664,-2.342 17.689,-6.413c2.117,-1.715 3.923,-3.959 5.29,-6.303c1.611,-2.76 2.42,-5.889 3.632,-8.824l-1.008,2.389c0.488,-1.108 1.074,-2.136 1.793,-3.11l-1.564,2.024c0.806,-1.033 1.713,-1.943 2.743,-2.753l-2.024,1.564c0.736,-0.547 1.497,-1.021 2.313,-1.439c-4.897,-3.764 -9.794,-7.529 -14.69,-11.293c-0.634,2.912 -1.267,5.824 -1.901,8.736c-0.606,2.787 -0.978,5.793 -2.013,8.458c0.336,-0.796 0.672,-1.592 1.008,-2.389c-0.252,0.547 -0.536,1.044 -0.896,1.526l1.564,-2.023c-0.413,0.502 -0.865,0.934 -1.38,1.332c0.675,-0.521 1.35,-1.043 2.024,-1.564c-0.63,0.448 -1.286,0.805 -1.993,1.115l2.389,-1.008c-1.511,0.61 -3.087,0.945 -4.697,1.166c0.887,-0.12 1.773,-0.239 2.659,-0.358c-0.92,0.116 -1.841,0.197 -2.766,0.259c-2.668,0.178 -5.136,0.994 -7.071,2.929c-1.734,1.734 -3.04,4.58 -2.929,7.071c0.116,2.586 0.966,5.268 2.929,7.071c1.881,1.726 4.434,3.105 7.071,2.929c3.056,-0.205 6.248,-0.457 9.171,-1.427c4.346,-1.442 8.081,-3.887 10.584,-7.793c2.051,-3.203 2.576,-7.122 3.368,-10.764l2.164,-9.949c0.87,-3.998 -0.283,-7.962 -3.583,-10.512c-3.283,-2.536 -7.456,-2.652 -11.107,-0.782c-3.655,1.873 -6.53,4.775 -8.874,8.093c-2.049,2.901 -2.941,6.419 -4.243,9.68l1.008,-2.388c-0.55,1.299 -1.228,2.491 -2.086,3.613l1.564,-2.024c-0.852,1.061 -1.808,1.996 -2.882,2.832c0.675,-0.521 1.349,-1.042 2.024,-1.564c-1.094,0.813 -2.253,1.486 -3.501,2.033l2.389,-1.008c-1.258,0.518 -2.544,0.884 -3.888,1.096c0.886,-0.119 1.772,-0.238 2.659,-0.357c-0.98,0.129 -1.952,0.174 -2.939,0.129c2.878,5.016 5.756,10.032 8.635,15.047c0.354,-0.691 0.759,-1.341 1.222,-1.964l-1.564,2.024c0.89,-1.145 1.929,-2.124 3.074,-3.01l-2.024,1.564c2.342,-1.76 4.965,-3.072 7.556,-4.416c3.199,-1.66 6.104,-3.481 8.903,-5.777c3.359,-2.755 5.851,-6.743 7.027,-10.91c1.575,-5.58 0.648,-11.343 -0.422,-16.91c-0.433,-2.252 -2.596,-4.92 -4.596,-5.977c-2.454,-1.296 -4.973,-1.6 -7.705,-1.008c-4.072,0.884 -8.12,1.969 -12.047,3.368c-3.801,1.355 -6.983,3.282 -9.053,6.873c-0.893,1.549 -1.536,3.148 -2.613,4.601c0.522,-0.675 1.043,-1.35 1.564,-2.024c-0.901,1.16 -1.911,2.192 -3.054,3.115l2.024,-1.564c-1.108,0.852 -2.28,1.554 -3.558,2.12c0.796,-0.336 1.593,-0.672 2.389,-1.008c-1.376,0.573 -2.789,0.964 -4.262,1.191c0.886,-0.119 1.772,-0.238 2.659,-0.357c-1.604,0.214 -3.199,0.225 -4.805,0.035c0.886,0.119 1.772,0.238 2.658,0.357c-1.599,-0.223 -3.135,-0.638 -4.625,-1.263l2.389,1.008c-1.134,-0.506 -2.193,-1.115 -3.195,-1.848c-2.51,-1.834 -6.209,-1.639 -8.9,-0.504c-2.989,1.262 -4.713,3.461 -5.79,6.481c-1.18,3.306 -2.08,6.702 -2.652,10.167c-0.833,5.045 -1.564,10.327 1.154,14.999c6.014,10.34 20.307,7.177 29.232,3.171c0.675,-0.521 1.35,-1.042 2.024,-1.563c0.975,-0.906 1.665,-1.979 2.068,-3.219c0.839,-1.987 1.187,-4.401 0.504,-6.511c-1.319,-4.075 -5.137,-7.534 -9.643,-7.341c-1.709,0.073 -3.402,0.006 -5.1,-0.2c0.886,0.12 1.772,0.239 2.658,0.358c-1.683,-0.232 -3.381,-0.537 -4.955,-1.194l2.388,1.008c-0.467,-0.222 -0.891,-0.469 -1.309,-0.774l2.023,1.564c-0.289,-0.247 -0.536,-0.49 -0.782,-0.779c0.521,0.675 1.042,1.349 1.564,2.024c-0.342,-0.465 -0.602,-0.943 -0.827,-1.472l1.008,2.388c-0.328,-0.876 -0.536,-1.779 -0.752,-2.688c-0.397,-1.664 -0.969,-3.165 -1.709,-4.735c-1.327,-2.814 -3.886,-5.345 -6.698,-6.656c-3.932,-1.833 -7.726,-2.204 -11.96,-1.473c-3.013,0.52 -5.819,1.917 -8.557,3.23c-5.612,2.69 -6.607,11.675 -2.024,15.706c4.237,3.726 8.901,6.443 14.302,8.13c3.031,0.948 6.283,0.092 8.718,-1.79c2.247,-1.736 4.305,-4.829 3.94,-7.852c-0.67,-5.562 -1.49,-11.103 -2.636,-16.587c-0.475,-2.271 -0.898,-4.614 -1.604,-6.827c-1.288,-4.038 -3.783,-7.406 -7.546,-9.456c-2.504,-1.364 -5.273,-2.479 -7.958,-3.402c-2.627,-0.904 -5.604,-1.472 -8.381,-1.296c-3.35,0.213 -6.675,0.959 -9.54,2.796c-3.388,2.172 -5.833,5.289 -7.066,9.123c-1,3.107 -1.012,6.991 0.064,10.084c0.85,2.446 1.863,4.129 3.487,6.108c1.102,1.344 2.602,2.285 3.989,3.314c-0.675,-0.521 -1.35,-1.042 -2.024,-1.564c0.18,0.137 0.346,0.289 0.498,0.457l-1.564,-2.024c0.155,0.175 0.279,0.37 0.372,0.586c-0.336,-0.797 -0.672,-1.593 -1.008,-2.389c0.092,0.22 0.156,0.449 0.19,0.686c-0.119,-0.886 -0.238,-1.772 -0.357,-2.658c0.166,1.515 -0.026,3.088 -0.036,4.61c-0.012,1.695 0.02,3.391 0.098,5.085c0.074,1.613 0.188,3.224 0.343,4.831c0.214,2.217 0.298,4.582 0.903,6.72c1.036,3.656 3.453,6.681 6.969,8.165c2.553,1.077 4.995,1.105 7.679,0.86c3.404,-0.311 6.807,-0.623 10.21,-0.934c-1.682,-6.211 -3.364,-12.423 -5.047,-18.634c-5.218,3.577 -10.584,6.929 -16.087,10.049c-4.554,2.581 -6.488,9.184 -3.588,13.682c2.967,4.601 8.81,6.349 13.682,3.587" fill="#26aae1" id="svg_8"/>
      </g>
     </g>
     <g opacity="0.67999" id="svg_9">
      <g clip-path="url(#clip_2)" id="svg_10">
       <path d="m412.33839,71.9223c-4.041,1.397 -7.345,3.993 -9.371,7.814c-1.378,2.601 -2.232,5.453 -3.374,8.16l1.008,-2.389c-2.856,6.623 -6.936,12.588 -11.178,18.388c-4.441,6.071 -8.931,12.076 -12.853,18.504c-2.356,3.862 -4.543,7.824 -6.574,11.866l18.277,2.389c-0.217,-1.461 -0.424,-2.923 -0.622,-4.386c0.119,0.886 0.238,1.772 0.357,2.658c-1.002,-7.481 -1.744,-14.995 -2.209,-22.529c-0.233,-3.767 -0.397,-7.537 -0.493,-11.31c-0.092,-3.622 -0.375,-7.391 -0.038,-11.002c-0.119,0.886 -0.238,1.772 -0.357,2.658c0.067,-0.397 0.152,-0.716 0.307,-1.087l-1.008,2.388c0.066,-0.107 0.132,-0.214 0.197,-0.322c-0.521,0.675 -1.042,1.35 -1.563,2.024c0.132,-0.179 0.287,-0.337 0.464,-0.473l-2.024,1.564c0.287,-0.199 0.557,-0.348 0.876,-0.494l-2.389,1.008c3.539,-1.365 7.484,-2.023 11.226,-2.539c-0.886,0.119 -1.772,0.238 -2.658,0.357c4.109,-0.537 8.244,-0.709 12.383,-0.51c-2.878,-5.015 -5.756,-10.031 -8.634,-15.047c-1.124,1.525 -2.264,3.038 -3.422,4.538c0.522,-0.674 1.043,-1.349 1.564,-2.024c-3.867,4.994 -7.926,9.834 -12.171,14.511c-1.776,1.959 -2.928,4.378 -2.928,7.071c0,2.453 1.089,5.383 2.928,7.071c1.906,1.75 4.408,3.049 7.072,2.929c2.577,-0.115 5.283,-0.959 7.071,-2.929c6.09,-6.712 11.779,-13.776 17.155,-21.072c2.059,-2.795 1.66,-7.258 0,-10.095c-1.846,-3.154 -5.063,-4.78 -8.635,-4.953c-5.992,-0.288 -11.97,0.26 -17.871,1.309c-2.503,0.445 -4.997,1.017 -7.427,1.765c-2.319,0.713 -4.475,1.724 -6.259,3.398c-2.172,2.039 -3.33,4.733 -3.719,7.625c-0.394,2.935 -0.251,5.929 -0.209,8.886c0.038,2.625 0.109,5.25 0.213,7.873c0.215,5.41 0.569,10.815 1.064,16.207c0.62,6.772 1.476,13.522 2.474,20.249l1.008,2.389l1.563,2.024c1.564,1.563 3.576,2.459 5.742,2.75c3.729,0.501 8.18,-1.223 9.964,-4.774c3.862,-7.687 8.317,-15.057 13.325,-22.051c4.658,-6.504 9.698,-12.764 13.728,-19.693c2.552,-4.389 4.348,-9.053 6.259,-13.74l-1.008,2.389c0.408,-0.963 0.868,-1.885 1.479,-2.736l-1.563,2.024c0.343,-0.435 0.706,-0.817 1.135,-1.168c-0.675,0.521 -1.349,1.042 -2.024,1.563c0.361,-0.258 0.722,-0.463 1.13,-0.639c-0.796,0.336 -1.593,0.672 -2.389,1.008c0.106,-0.036 0.212,-0.073 0.318,-0.109c2.477,-0.857 4.623,-2.284 5.976,-4.596c1.254,-2.143 1.786,-5.303 1.008,-7.706c-0.783,-2.419 -2.282,-4.754 -4.595,-5.976c-2.293,-1.211 -5.169,-1.885 -7.706,-1.008" fill="#ffde18" id="svg_11"/>
      </g>
     </g>
     <path d="m124.90067,50.06451c-7.319,1.165 -14.462,3.869 -20.85,7.607c-3.08,1.802 -5.873,3.963 -8.654,6.186c-2.539,2.029 -5.065,4.137 -7.097,6.691c-1.906,2.396 -3.291,5.166 -3.764,8.209c-0.2,1.285 -0.333,2.53 0.062,3.786c0.414,1.318 1.071,2.581 1.785,3.758c1.451,2.394 3.61,4.546 6.053,5.921c1.522,0.856 2.872,1.292 4.552,1.69c1.288,0.306 2.541,0.753 3.711,1.375c8.991,4.772 9.726,17.308 5.156,25.406c-1.308,2.318 -3.191,4.188 -4.914,6.193c-2.124,2.472 -4.215,5.113 -6.744,7.192c-5.586,4.595 -13.181,5.711 -19.344,9.314c-2.742,1.603 -5.324,3.311 -8.225,4.642c-2.95,1.353 -5.983,2.508 -8.984,3.741c-5.411,2.223 -11.014,4.728 -15.018,9.143c-0.957,1.055 -1.799,2.202 -2.532,3.422c-0.416,0.692 0.664,1.321 1.079,0.631c3.191,-5.308 8.582,-8.414 14.103,-10.847c5.673,-2.5 11.647,-4.409 16.987,-7.611c1.434,-0.86 2.785,-1.835 4.263,-2.623c1.659,-0.886 3.389,-1.628 5.135,-2.324c3.22,-1.284 6.523,-2.418 9.585,-4.063c5.529,-2.97 9.348,-8.289 13.398,-12.934c5.858,-6.719 7.243,-18.058 2.056,-25.554c-1.256,-1.816 -2.881,-3.355 -4.784,-4.479c-1.041,-0.615 -2.162,-1.104 -3.313,-1.473c-1.574,-0.504 -3.146,-0.639 -4.624,-1.429c-2.742,-1.464 -5.101,-3.543 -6.682,-6.241c-0.697,-1.189 -1.48,-2.552 -1.689,-3.934c-0.234,-1.537 0.239,-3.343 0.709,-4.798c2.059,-6.367 8.238,-10.707 13.335,-14.574c5.984,-4.539 13.076,-7.783 20.319,-9.704c1.735,-0.46 3.49,-0.831 5.262,-1.114c0.793,-0.126 0.456,-1.33 -0.332,-1.205" fill="#2e3092" id="svg_12"/>
     <path d="m125.06687,51.63262c6.101,-0.561 12.191,-0.297 18.07,1.579c2.563,0.817 4.951,3.175 6.369,5.387c2.275,3.548 3.4,7.596 3.562,11.791c0.082,2.109 -0.047,4.223 -0.284,6.319c-0.249,2.201 -0.526,4.437 -1.453,6.472c-0.81,1.776 -2.017,3.305 -3.402,4.668c-1.559,1.534 -2.934,3.219 -4.723,4.496c-3.201,2.285 -5.731,5.505 -8.417,8.351c-2.563,2.715 -5.419,5.743 -9.077,6.908c-1.639,0.522 -3.82,0.737 -5.444,0.021c-1.852,-0.816 0.124,-3.439 0.904,-4.324c2.884,-3.269 6.639,-5.22 10.821,-6.299c9.846,-2.54 20.168,-2.188 29.958,0.396c4.634,1.222 9.15,2.839 13.646,4.489c4.509,1.656 9.028,3.609 13.778,4.454c4.624,0.824 9.351,0.778 14.011,0.303c4.875,-0.497 9.642,-1.757 14.506,-2.244c5.118,-0.513 10.24,0.127 15.296,0.903c4.701,0.722 9.172,2.687 13.591,4.383c4.577,1.758 9.151,3.555 13.876,4.883c1.926,0.542 4.096,1.303 6.119,1.264c1.658,-0.031 3.309,-0.664 4.646,-1.628c1.235,-0.891 2.195,-2.055 2.665,-3.513c0.248,-0.767 -0.959,-1.096 -1.205,-0.332c-0.644,1.996 -2.555,3.398 -4.511,3.968c-2.207,0.642 -4.577,-0.203 -6.716,-0.781c-5.036,-1.36 -9.895,-3.283 -14.758,-5.149c-4.704,-1.805 -9.34,-3.699 -14.344,-4.447c-5.085,-0.762 -10.243,-1.341 -15.377,-0.723c-5.16,0.621 -10.194,1.897 -15.393,2.312c-5.146,0.41 -10.384,0.246 -15.379,-1.158c-4.892,-1.375 -9.618,-3.428 -14.405,-5.123c-4.796,-1.698 -9.663,-3.249 -14.669,-4.198c-5.116,-0.97 -10.348,-1.286 -15.543,-0.9c-4.805,0.358 -9.857,1.123 -14.313,3.031c-3.232,1.383 -6.895,3.974 -8.584,7.162c-0.633,1.195 -0.901,2.642 -0.042,3.801c0.86,1.162 3.335,1.202 4.657,1.125c3.62,-0.212 6.684,-2.402 9.26,-4.783c3.125,-2.888 5.816,-6.209 8.841,-9.196c1.541,-1.523 3.405,-2.601 4.904,-4.177c1.38,-1.45 2.89,-2.829 4.118,-4.413c2.669,-3.443 3.25,-7.591 3.583,-11.822c0.328,-4.173 0.085,-8.443 -1.374,-12.4c-0.727,-1.974 -1.724,-3.839 -2.947,-5.55c-0.884,-1.237 -2.046,-2.175 -3.244,-3.097c-0.907,-0.699 -1.783,-1.36 -2.871,-1.736c-1.41,-0.488 -2.888,-0.811 -4.344,-1.125c-2.957,-0.637 -5.996,-0.909 -9.021,-0.933c-1.784,-0.014 -3.567,0.172 -5.341,0.335c-0.794,0.073 -0.802,1.324 0,1.25" fill="#2e3092" id="svg_13"/>
     <path d="m151.75628,44.9653c8.47,-6.026 19.784,-6.645 29.826,-6.728c5.565,-0.046 12.235,0.203 16.726,3.93c1.785,1.481 3.221,3.325 4.789,5.021c1.773,1.917 3.813,3.555 5.801,5.242c4.228,3.586 8.485,7.192 12.068,11.444c1.705,2.025 3.037,4.297 4.682,6.36c1.427,1.79 3.106,3.348 4.941,4.711c3.92,2.913 8.447,4.77 12.941,6.59c2.678,1.085 5.133,2.6 7.647,4.007c1.86,1.041 3.793,1.889 5.714,2.804c3.808,1.811 7.978,3.633 10.979,6.67c4.014,4.064 5.677,9.422 5.712,15.044c0.005,0.804 1.255,0.806 1.25,0c-0.029,-4.721 -1.103,-9.421 -3.878,-13.311c-2.488,-3.486 -5.74,-5.55 -9.462,-7.498c-4.043,-2.116 -8.187,-3.941 -12.159,-6.199c-4.681,-2.662 -9.856,-4.221 -14.54,-6.877c-2.205,-1.25 -4.293,-2.707 -6.12,-4.471c-1.987,-1.919 -3.36,-4.216 -4.998,-6.411c-3.402,-4.56 -7.618,-8.39 -11.924,-12.073c-2.15,-1.839 -4.407,-3.594 -6.447,-5.556c-1.78,-1.713 -3.273,-3.695 -5.046,-5.415c-3.921,-3.806 -9.318,-4.889 -14.617,-5.182c-6.096,-0.338 -12.39,-0.001 -18.422,0.933c-5.671,0.877 -11.369,2.524 -16.094,5.886c-0.65,0.462 -0.026,1.547 0.631,1.079" fill="#2e3092" id="svg_14"/>
     <path d="m155.51357,41.59271c-1.679,0.674 -3.1,1.074 -4.514,2.324c-1.611,1.423 -1.089,3.757 0.615,4.875c2.074,1.361 5.283,1.061 7.587,0.592c2.271,-0.463 4.559,-1.156 6.801,-1.757c3.799,-1.02 7.489,-2.328 11.342,-3.142c3.896,-0.822 7.946,-1.562 11.691,-2.938c2.488,-0.915 4.868,-2.063 7.401,-2.874c2.248,-0.72 4.541,-1.278 6.827,-1.861c5.51,-1.406 10.847,-3.369 16.326,-4.889c5.708,-1.584 11.266,-3.101 17.233,-3.254c3.448,-0.088 7.002,-0.117 10.392,0.577c3.192,0.654 6.298,1.735 9.334,2.902c11.784,4.527 22.144,12.029 33.961,16.49c6.185,2.335 12.482,4.371 18.518,7.085c2.999,1.349 5.932,2.853 8.729,4.584c2.61,1.615 4.798,3.651 6.826,5.945c1.688,1.91 3.569,3.934 4.811,6.173c0.774,1.394 1.232,2.945 1.743,4.447c0.56,1.65 1.099,3.308 1.544,4.992c0.382,1.445 0.663,2.912 0.957,4.376c0.258,1.291 0.529,2.724 -0.403,3.821c-0.468,0.551 -1.183,1.107 -1.905,1.232c-0.787,0.135 -1.451,-0.352 -2.035,-0.806c-1.332,-1.037 -2.605,-2.197 -3.833,-3.354c-2.041,-1.921 -3.705,-4.153 -6.013,-5.773c-2.311,-1.622 -4.826,-2.904 -6.901,-4.845c-3.569,-3.338 -7.29,-6.665 -11.638,-8.964c-3.378,-1.786 -7.091,-3.033 -10.689,-4.292c-2.218,-0.776 -4.467,-1.292 -6.771,-1.73c-2.688,-0.511 -5.263,-1.108 -8.017,-1.163c-6.446,-0.13 -12.948,0.575 -19.377,0.983c-3.081,0.196 -6.233,0.585 -9.316,0.291c-2.429,-0.231 -4.893,-0.806 -7.343,-0.569c-1.935,0.187 -3.544,0.987 -4.595,2.658c-0.43,0.683 0.651,1.311 1.079,0.631c1.399,-2.224 4.048,-2.21 6.395,-1.996c2.549,0.233 5.04,0.72 7.61,0.595c6.709,-0.325 13.406,-0.871 20.115,-1.206c2.976,-0.148 6.025,-0.331 8.983,0.136c2.298,0.363 4.635,0.879 6.905,1.4c4.136,0.949 8.331,2.583 12.22,4.295c4.002,1.762 7.475,4.363 10.741,7.243c2.116,1.866 4.055,3.805 6.439,5.336c2.426,1.558 4.71,2.978 6.642,5.147c2.032,2.28 4.346,4.447 6.781,6.294c1.926,1.46 4.123,1.035 5.604,-0.903c1.328,-1.737 0.7,-3.909 0.307,-5.859c-0.663,-3.296 -1.643,-6.464 -2.741,-9.639c-0.843,-2.439 -1.942,-4.43 -3.578,-6.422c-1.779,-2.167 -3.535,-4.339 -5.584,-6.263c-4.421,-4.152 -10.328,-6.775 -15.865,-9.086c-6.024,-2.515 -12.281,-4.415 -18.31,-6.907c-5.807,-2.401 -11.289,-5.487 -16.805,-8.475c-5.426,-2.939 -10.928,-5.713 -16.743,-7.806c-3.053,-1.099 -6.176,-2.097 -9.4,-2.536c-3.261,-0.443 -6.668,-0.389 -9.95,-0.248c-11.328,0.485 -21.87,5.379 -32.715,8.147c-2.231,0.569 -4.469,1.113 -6.665,1.809c-2.534,0.803 -4.922,1.902 -7.392,2.862c-3.69,1.433 -7.767,2.132 -11.627,2.952c-3.802,0.807 -7.452,2.048 -11.194,3.086c-2.246,0.623 -4.532,1.257 -6.802,1.778c-1.456,0.335 -2.951,0.368 -4.44,0.338c-1.342,-0.027 -3.732,-0.706 -3.573,-2.5c0.098,-1.098 1.601,-1.982 2.545,-2.422c0.653,-0.304 1.391,-0.442 2.062,-0.712c0.738,-0.296 0.416,-1.505 -0.332,-1.205" fill="#2e3092" id="svg_15"/>
     <path d="m235.33987,62.9378c-1.598,1.519 -3.285,4.81 -2.012,6.979c0.87,1.482 2.594,1.831 4.19,1.777c4.61,-0.157 9.273,-2.646 13.91,-1.545c1.307,0.311 2.38,1.074 3.507,1.771c1.402,0.868 2.795,1.751 4.139,2.707c2.652,1.886 5.15,4.078 6.671,7.001c2.487,4.782 4.706,9.704 7.05,14.557c2.273,4.704 4.554,9.463 7.369,13.873c1.334,2.09 3.267,5.503 6.132,5.393c4.709,-0.182 2.832,-7.297 2.12,-10.043c-1.916,-7.387 -4.394,-14.638 -6.482,-21.978c-2.196,-7.717 -4.331,-15.785 -4.531,-23.852c-0.041,-1.668 0.097,-3.855 1.682,-4.833c1.675,-1.033 3.833,-0.22 5.085,1.09c2.568,2.689 3.266,7.232 3.625,10.77c0.393,3.881 0.271,7.787 0.31,11.68c0.037,3.719 0.438,7.344 1.412,10.939c0.935,3.455 2.264,6.783 3.603,10.096c1.284,3.175 2.452,6.391 3.71,9.574c0.729,1.845 1.547,3.788 3.135,5.064c1.544,1.24 3.996,2.022 5.965,1.914c2.35,-0.129 3.533,-2.315 3.909,-4.391c0.371,-2.051 0.667,-4.164 0.832,-6.242c0.256,-3.219 0.011,-6.562 -0.205,-9.779c-0.197,-2.931 -0.524,-5.85 -0.927,-8.76c-0.745,-5.386 -1.728,-10.738 -2.036,-16.176c-0.179,-3.165 -0.155,-6.338 0.039,-9.502c0.118,-1.941 0.289,-3.883 0.526,-5.814c0.2,-1.627 0.518,-3.331 1.346,-4.767c4.23,-7.336 14.153,3.266 17.139,6.917c2.278,2.787 4.198,5.868 5.796,9.091c0.789,1.59 1.497,3.219 2.125,4.879c0.473,1.248 0.824,2.548 1.423,3.745c1.103,2.203 2.543,4.389 4.177,6.239c1.591,1.801 4.781,3.025 6.817,1.113c1.727,-1.621 1.192,-4.774 1.189,-6.876c-0.001,-0.804 -1.251,-0.806 -1.25,0c0.004,2.513 0.648,7.455 -3.477,6.461c-2.513,-0.606 -4.216,-3.87 -5.447,-5.907c-1.458,-2.412 -2.165,-5.126 -3.28,-7.702c-1.345,-3.109 -2.973,-6.101 -4.902,-8.887c-1.868,-2.701 -4.011,-5.222 -6.442,-7.434c-2.302,-2.097 -5.015,-4.354 -8.107,-5.107c-2.75,-0.67 -5.413,0.365 -6.84,2.837c-1.543,2.671 -1.638,6.077 -1.888,9.069c-0.498,5.964 -0.364,11.918 0.39,17.854c0.676,5.314 1.657,10.582 2.154,15.919c0.529,5.686 0.696,11.318 -0.123,16.973c-0.336,2.318 -0.844,5.412 -3.92,4.933c-2.044,-0.319 -4.03,-0.987 -5.28,-2.726c-1.442,-2.009 -2.129,-4.586 -2.986,-6.874c-1.272,-3.397 -2.714,-6.729 -3.996,-10.122c-1.235,-3.268 -2.301,-6.61 -2.863,-10.065c-0.621,-3.815 -0.455,-7.692 -0.484,-11.542c-0.025,-3.544 -0.157,-7.115 -0.898,-10.592c-0.637,-2.991 -1.674,-6.503 -4.233,-8.43c-2.052,-1.545 -5.221,-1.685 -6.885,0.499c-1.837,2.413 -1.155,6.135 -0.858,8.905c0.839,7.796 2.859,15.394 5.058,22.9c1.131,3.859 2.291,7.71 3.439,11.563c0.881,2.954 1.867,5.898 2.552,8.906c0.411,1.808 1.245,4.823 0.145,6.543c-0.711,1.112 -2.223,0.771 -3.085,0.081c-1.283,-1.026 -2.243,-2.502 -3.128,-3.863c-1.281,-1.968 -2.42,-4.028 -3.518,-6.102c-2.585,-4.884 -4.923,-9.895 -7.303,-14.882c-1.087,-2.277 -2.176,-4.554 -3.315,-6.806c-1.304,-2.58 -2.96,-4.686 -5.185,-6.548c-2.372,-1.984 -5.01,-3.61 -7.638,-5.227c-1.949,-1.199 -3.939,-1.615 -6.223,-1.478c-2.365,0.143 -4.679,0.712 -6.992,1.189c-1.758,0.363 -4.13,1.043 -5.871,0.273c-2.594,-1.146 -0.558,-5.026 0.823,-6.338c0.584,-0.555 -0.301,-1.438 -0.884,-0.884" fill="#2e3092" id="svg_16"/>
     <path d="m348.09129,76.06472c-0.847,-5.54 -1.507,-11.108 -1.918,-16.697c-0.362,-4.936 -0.676,-9.956 -0.394,-14.904c0.229,-4.016 0.947,-8.163 2.876,-11.739c2.065,-3.826 5.508,-6.383 9.772,-7.267c2.299,-0.477 4.673,-0.501 7.007,-0.328c2.406,0.178 4.917,0.466 7.208,1.254c2.517,0.867 4.405,2.583 6.133,4.549c1.731,1.969 3.391,4.004 5.08,6.008c3.33,3.949 7.017,7.789 9.823,12.141c1.2,1.862 2.227,3.893 2.643,6.086c0.2,1.052 0.41,2.5 0.091,3.552c-0.476,1.571 -2.467,1.439 -3.655,0.824c-3.621,-1.874 -3.403,-6.626 -2.81,-10.073c0.399,-2.316 0.942,-4.306 2.331,-6.242c1.04,-1.449 2.258,-2.883 3.548,-4.119c2.01,-1.925 4.239,-3.649 6.41,-5.385c2.359,-1.887 4.725,-3.78 7.29,-5.382c3.997,-2.497 8.841,-4.773 13.679,-3.859c4.276,0.809 8.297,3.454 11.339,6.488c1.669,1.665 2.838,3.492 3.419,5.798c0.559,2.215 0.508,4.586 0.397,6.853c-0.233,4.747 -1.274,9.419 -2.778,13.917c-3.059,9.146 -7.965,17.561 -12.953,25.765c-5.152,8.475 -10.494,16.847 -15.188,25.586c-0.883,1.644 -1.788,3.437 -3.213,4.682c-0.607,0.53 0.28,1.411 0.884,0.884c1.552,-1.357 2.546,-3.321 3.503,-5.111c1.188,-2.222 2.352,-4.438 3.657,-6.595c3.019,-4.988 6.026,-9.983 9.074,-14.953c5.572,-9.082 11.242,-18.257 14.883,-28.322c1.726,-4.773 2.949,-9.747 3.319,-14.818c0.334,-4.589 0.224,-9.573 -2.903,-13.259c-2.922,-3.444 -7.022,-6.294 -11.334,-7.666c-4.69,-1.491 -9.468,-0.238 -13.712,1.975c-3.231,1.685 -6.106,3.862 -8.957,6.109c-2.574,2.029 -5.2,4.058 -7.59,6.305c-1.326,1.248 -2.535,2.704 -3.621,4.161c-1.468,1.967 -2.171,3.959 -2.6,6.352c-0.633,3.529 -1.035,7.739 1.542,10.604c1.197,1.331 2.984,2.232 4.802,1.928c2.421,-0.403 2.702,-2.492 2.575,-4.609c-0.292,-4.835 -3.355,-8.963 -6.326,-12.564c-3.778,-4.579 -7.606,-9.134 -11.488,-13.626c-1.701,-1.968 -3.562,-3.794 -5.993,-4.82c-2.225,-0.939 -4.678,-1.274 -7.064,-1.535c-4.781,-0.524 -9.998,-0.308 -14.153,2.388c-3.485,2.262 -5.658,5.91 -6.843,9.82c-1.307,4.312 -1.492,8.846 -1.413,13.32c0.109,6.153 0.56,12.297 1.271,18.409c0.329,2.823 0.715,5.638 1.145,8.447c0.121,0.793 1.325,0.456 1.205,-0.332" fill="#2e3092" id="svg_17"/>
     <path d="m408.43366,106.97921c-4.701,8.618 -11.587,15.784 -16.64,24.172c-1.817,3.014 -3.845,5.898 -6.233,8.492c-1.623,1.762 -5.248,5.836 -8.035,4.309c-1.269,-0.695 -2.115,-2.138 -2.793,-3.362c-0.905,-1.632 -1.608,-3.373 -2.223,-5.133c-1.23,-3.517 -1.95,-7.077 -2.57,-10.742c-0.677,-3.991 -1.326,-7.99 -1.469,-12.042c-0.139,-3.974 0.285,-7.92 0.294,-11.886c0.006,-3.057 -0.126,-6.113 -0.11,-9.171c0.008,-1.6 0.035,-3.204 0.159,-4.8c0.072,-0.927 0.06,-2.225 0.588,-3.039c0.519,-0.799 1.704,-1.24 2.552,-1.542c1.326,-0.474 2.715,-0.772 4.1,-1.012c3.546,-0.615 7.167,-0.825 10.76,-0.924c3.021,-0.083 6.05,-0.075 9.069,0.078c3.973,0.2 7.9,0.653 11.887,0.415c8.53,-0.51 16.484,-3.991 24.584,-6.407c5.581,-1.664 11.163,-3.339 16.509,-5.674c4.711,-2.058 9.741,-3.166 14.537,-4.993c2.081,-0.793 4.01,-1.853 6.019,-2.8c2.06,-0.971 4.174,-1.82 6.31,-2.606c4.627,-1.704 9.354,-3.121 14.086,-4.5c4.56,-1.329 9.139,-2.603 13.664,-4.05c4.997,-1.598 9.89,-3.516 14.765,-5.451c10.251,-4.067 20.342,-8.517 30.516,-12.769c10.319,-4.312 20.865,-8.039 31.149,-12.426c9.698,-4.137 19.563,-8.333 30.244,-8.816c9.459,-0.428 22.066,1.677 24.839,12.43c0.559,2.164 0.548,4.491 -0.267,6.591c-0.914,2.354 -3.059,3.836 -4.397,5.92c-2.089,3.253 -4.092,6.56 -6.274,9.754c-7.341,10.745 -16.477,20.2 -25.781,29.242c-1.478,1.436 -2.754,2.663 -4.639,3.534c-3.138,1.45 -6.455,2.625 -9.769,3.603c-8.037,2.373 -15.703,-2.81 -23.216,-4.936c-4.043,-1.145 -8.255,-1.507 -12.267,-0.044c-0.75,0.273 -0.426,1.482 0.332,1.205c9.323,-3.398 18.094,3.393 26.952,5.243c3.451,0.72 6.504,0.401 9.81,-0.657c3.288,-1.053 6.658,-2.199 9.73,-3.79c1.804,-0.934 3.206,-2.542 4.639,-3.947c2.465,-2.415 4.894,-4.868 7.307,-7.336c4.839,-4.948 9.304,-10.172 13.613,-15.592c1.91,-2.404 3.714,-4.881 5.407,-7.442c1.064,-1.608 2.097,-3.235 3.128,-4.864c0.583,-0.922 1.165,-1.846 1.746,-2.769c0.817,-1.296 1.788,-2.355 2.802,-3.493c2.929,-3.285 3.43,-7.737 1.957,-11.819c-1.576,-4.37 -4.958,-7.656 -9.152,-9.551c-4.625,-2.091 -9.83,-2.637 -14.859,-2.578c-5.329,0.063 -10.604,1.016 -15.7,2.544c-5.035,1.509 -9.892,3.539 -14.723,5.595c-5.263,2.241 -10.546,4.371 -15.9,6.387c-10.815,4.072 -21.421,8.658 -32.056,13.172c-10.371,4.402 -20.802,8.911 -31.57,12.266c-9.563,2.98 -19.363,5.301 -28.691,8.994c-4.467,1.769 -8.611,4.147 -13.194,5.634c-2.533,0.822 -5.099,1.542 -7.617,2.409c-2.629,0.905 -5.132,2.114 -7.73,3.098c-5.609,2.126 -11.415,3.647 -17.12,5.48c-4.166,1.338 -8.292,2.873 -12.554,3.889c-4.342,1.035 -8.765,1.294 -13.215,1.074c-3.227,-0.16 -6.42,-0.491 -9.653,-0.534c-3.576,-0.048 -7.159,0.037 -10.724,0.323c-3.212,0.258 -6.563,0.589 -9.623,1.658c-1.992,0.696 -3.544,1.621 -3.924,3.799c-0.554,3.174 -0.42,6.507 -0.383,9.715c0.035,2.985 0.139,5.951 -0.016,8.933c-0.222,4.268 -0.359,8.548 0.058,12.809c0.423,4.32 1.132,8.676 1.995,12.927c0.701,3.454 1.785,6.889 3.234,10.102c1.029,2.285 2.718,5.893 5.59,6.206c3.096,0.337 6.027,-2.675 7.937,-4.711c2.424,-2.583 4.563,-5.486 6.38,-8.525c2.563,-4.286 5.619,-8.251 8.591,-12.256c2.961,-3.991 5.943,-8.011 8.327,-12.382c0.386,-0.707 -0.693,-1.338 -1.079,-0.631" fill="#2e3092" id="svg_18"/>
     <path d="m493.94886,91.0194c-1.928,0.164 -5.702,0.16 -6.789,-1.778c-0.717,-1.279 -0.108,-3.012 0.727,-4.106c0.696,-0.911 1.856,-1.577 2.713,-2.322c2.034,-1.769 5.119,-2.456 7.58,-3.434c1.243,-0.494 2.518,-0.985 3.678,-1.658c1.231,-0.714 2.01,-1.906 3.114,-2.787c2.751,-2.195 6.304,-2.425 9.493,-3.633c3.552,-1.346 6.847,-3.632 10.084,-5.606c2.041,-1.245 3.958,-2.666 5.944,-3.995c1.23,-0.823 2.53,-1.518 3.776,-2.312c1.936,-1.232 3.803,-2.629 5.484,-4.193c1.338,-1.244 3.543,-3.288 3.177,-5.354c-0.466,-2.627 -4.57,-2.518 -6.502,-2.494c-0.804,0.01 -0.806,1.26 0,1.25c1.35,-0.017 6.046,-0.22 5.149,2.303c-0.714,2.01 -2.881,3.653 -4.48,4.934c-1.815,1.453 -3.757,2.613 -5.733,3.821c-2.027,1.24 -3.915,2.688 -5.901,3.99c-1.668,1.093 -3.398,2.095 -5.118,3.103c-1.757,1.031 -3.484,2.177 -5.352,2.997c-1.653,0.726 -3.4,1.147 -5.138,1.609c-1.484,0.394 -2.954,0.867 -4.283,1.654c-0.674,0.399 -1.306,0.873 -1.894,1.389c-0.65,0.571 -1.159,1.31 -1.829,1.846c-0.982,0.784 -2.31,1.247 -3.459,1.713c-1.465,0.595 -2.95,1.14 -4.42,1.724c-1.121,0.446 -2.308,0.874 -3.332,1.522c-1.075,0.681 -2.054,1.631 -3.027,2.456c-1.845,1.563 -2.923,4.976 -1.008,6.884c1.734,1.727 5.039,1.924 7.346,1.727c0.796,-0.068 0.803,-1.318 0,-1.25" fill="#2e3092" id="svg_19"/>
     <path d="m548.23237,76.45712c-4.334,2.185 -7.45,6.092 -11.775,8.235c-2.003,0.993 -4.238,1.413 -6.369,2.052c-2.022,0.605 -4.033,1.245 -6.065,1.817c-1.371,0.387 -2.678,0.756 -4.104,0.723c-1.89,-0.045 -3.788,0.091 -5.67,0.234c-3.4,0.259 -6.793,0.621 -10.176,1.04c-2.079,0.257 -4.169,0.619 -6.262,0.736c-1.528,0.085 -3.061,-0.084 -4.583,-0.199c-0.802,-0.061 -0.798,1.19 0,1.25c1.418,0.108 2.847,0.265 4.27,0.214c1.517,-0.055 3.031,-0.303 4.535,-0.494c3.69,-0.47 7.385,-0.897 11.093,-1.207c2.023,-0.169 4.056,-0.323 6.087,-0.33c1.401,-0.005 2.578,-0.084 3.948,-0.437c2.037,-0.525 4.045,-1.166 6.058,-1.779c1.986,-0.604 4.056,-1.047 6.007,-1.749c5.244,-1.885 8.719,-6.547 13.637,-9.027c0.718,-0.362 0.086,-1.441 -0.631,-1.079" fill="#2e3092" id="svg_20"/>
     <path d="m542.27699,48.8952c-2.998,-2.598 -8.221,-1.335 -11.484,-0.102c-3.189,1.204 -5.986,3.292 -9.001,4.874c-2.796,1.467 -5.677,2.767 -8.643,3.853c-10.165,3.722 -20.942,4.374 -31.53,6.148c-6.408,1.074 -12.704,2.696 -18.969,4.402c-6.281,1.71 -12.527,3.707 -18.338,6.678c-2.318,1.186 -5.214,2.417 -6.763,4.59c-1.067,1.497 -2.402,3.435 -1.3,5.258c1.172,1.941 3.703,2.579 5.791,2.798c3.207,0.336 6.447,0.1 9.609,-0.502c6.519,-1.241 12.636,-4.006 18.658,-6.702c5.461,-2.445 11.134,-5.342 17.261,-5.372c2.734,-0.013 5.554,0.65 7.606,2.555c2.305,2.139 3.116,5.244 3.625,8.239c1.136,6.675 1.867,13.425 2.865,20.123c1.955,13.131 4.493,26.332 9.894,38.538c2.234,5.051 4.938,11.282 10.317,13.699c1.816,0.816 4.629,1.139 6.182,-0.418c0.965,-0.968 1.644,-2.763 2.149,-4.001c0.619,-1.514 1.04,-3.091 1.245,-4.714c0.729,-5.751 -1.386,-11.253 -3.404,-16.525c-1.137,-2.97 -2.15,-5.981 -3.185,-8.988c-1.147,-3.328 -2.112,-6.708 -1.949,-10.264c0.305,-6.644 3.878,-12.651 7.512,-18.017c0.887,-1.309 1.746,-2.716 2.78,-3.915c1.407,-1.631 3.379,-1.606 4.517,0.305c0.912,1.531 0.509,3.348 -0.067,4.927c-0.653,1.794 -1.541,3.513 -2.267,5.28c-4.679,11.385 -7.004,25.554 0.838,36.18c2.773,3.757 8.317,8.034 12.645,3.852c3.502,-3.383 3.194,-9.251 3.15,-13.689c-0.077,-7.722 -0.154,-15.444 -0.231,-23.166c-0.058,-5.791 -0.713,-13.625 4.027,-17.943c1.811,-1.65 4.4,-2.572 6.848,-2.374c2.083,0.168 5.082,1.651 4.615,4.161c-0.422,2.269 -2.263,4.312 -3.59,6.115c-1.57,2.136 -2.767,4.37 -3.657,6.879c-0.807,2.277 -1.263,4.663 -1.307,7.08c-0.031,1.693 0.187,3.385 0.103,5.077c-0.277,5.597 -1.306,12.345 2.172,17.258c2.43,3.434 7.503,5.997 11.507,3.667c4.515,-2.629 3.85,-8.36 3.125,-12.731c-0.467,-2.812 -1.066,-5.63 -0.835,-8.496c0.225,-2.799 1.167,-5.499 2.557,-7.927c2.903,-5.073 7.58,-8.999 12.57,-11.921c10.785,-6.313 23.779,-7.907 34.014,-15.319c5.112,-3.702 8.914,-8.716 12.837,-13.585c3.958,-4.913 8.255,-9.348 13.524,-12.867c9.967,-6.657 21.722,-10.017 33.378,-12.27c5.707,-1.104 11.46,-1.944 17.216,-2.745c0.793,-0.11 0.455,-1.315 -0.333,-1.205c-11.74,1.632 -23.589,3.407 -34.819,7.334c-10.97,3.836 -20.663,9.84 -28.158,18.8c-4.072,4.87 -7.736,10.176 -12.682,14.23c-4.975,4.079 -10.991,6.601 -16.971,8.815c-10.77,3.988 -22.186,7.547 -29.548,16.987c-3.191,4.09 -5.2,9.087 -4.848,14.335c0.173,2.586 0.768,5.122 1.13,7.684c0.354,2.503 0.629,5.396 -0.694,7.679c-3.039,5.245 -10.042,2.284 -12.428,-1.938c-3.009,-5.322 -1.279,-11.532 -1.46,-17.243c-0.056,-1.783 -0.186,-3.551 -0.01,-5.333c0.294,-2.982 1.318,-5.891 2.684,-8.542c1.064,-2.065 2.647,-3.813 3.928,-5.741c0.984,-1.483 2.209,-3.433 1.849,-5.308c-0.349,-1.822 -2.153,-3.189 -3.809,-3.768c-1.996,-0.699 -4.273,-0.516 -6.236,0.202c-5.079,1.859 -7.142,6.922 -7.728,11.959c-0.366,3.155 -0.248,6.351 -0.216,9.52c0.037,3.686 0.073,7.371 0.11,11.057c0.039,3.861 0.077,7.722 0.116,11.583c0.027,2.723 0.12,5.452 -0.491,8.127c-0.491,2.152 -1.448,4.567 -3.573,5.574c-3.277,1.551 -6.578,-1.08 -8.589,-3.469c-4.04,-4.798 -5.797,-11.185 -5.816,-17.376c-0.022,-6.939 2.073,-13.721 4.785,-20.043c1.133,-2.641 3.021,-5.664 2.27,-8.654c-0.513,-2.042 -2.55,-4.015 -4.788,-3.437c-2.421,0.624 -3.943,3.817 -5.224,5.707c-1.824,2.693 -3.556,5.465 -4.932,8.417c-2.655,5.693 -3.492,11.573 -1.769,17.668c1.684,5.955 4.234,11.616 6.147,17.49c1.941,5.96 2.448,12.615 -1.256,18.067c-1.901,2.798 -5.815,0.746 -7.751,-0.945c-2.308,-2.016 -3.8,-4.617 -5.174,-7.313c-3.037,-5.961 -5.3,-12.284 -7.055,-18.733c-3.484,-12.8 -5.007,-26.018 -6.861,-39.123c-0.756,-5.342 -1.237,-11.764 -6.429,-14.782c-4.403,-2.56 -10.053,-1.659 -14.656,-0.183c-6.109,1.958 -11.801,5.142 -17.761,7.497c-6.001,2.372 -12.379,4.222 -18.898,3.75c-2.243,-0.162 -7.19,-1.142 -5.465,-4.405c0.457,-0.864 1,-1.878 1.715,-2.561c1.118,-1.068 2.767,-1.82 4.114,-2.565c5.89,-3.254 12.308,-5.382 18.771,-7.172c6.035,-1.671 12.118,-3.271 18.286,-4.374c5.291,-0.946 10.632,-1.546 15.948,-2.331c5.182,-0.766 10.328,-1.781 15.305,-3.442c5.898,-1.968 11.484,-4.757 16.746,-8.057c2.442,-1.531 5.621,-2.496 8.512,-2.605c1.469,-0.056 3.338,0.05 4.511,1.067c0.605,0.525 1.493,-0.356 0.884,-0.884" fill="#2e3092" id="svg_21"/>
     <path d="m700.72755,36.8825c12.353,0.187 24.68,1.258 37.035,1.32c5.922,0.03 11.849,-0.21 17.734,-0.902c3.072,-0.361 6.13,-0.836 9.164,-1.436c3.011,-0.595 5.963,-1.523 8.977,-2.07c5.447,-0.99 11.559,-0.098 16.587,-2.811c0.709,-0.382 0.078,-1.462 -0.63,-1.08c-4.488,2.422 -10.11,1.822 -15.017,2.487c-2.782,0.378 -5.481,1.255 -8.222,1.849c-3.162,0.685 -6.354,1.239 -9.563,1.652c-11.519,1.481 -23.128,1.113 -34.696,0.557c-7.121,-0.342 -14.24,-0.708 -21.369,-0.816c-0.805,-0.012 -0.805,1.238 0,1.25" fill="#2e3092" id="svg_22"/>
     <text fill="#2e3092" xml:space="preserve" transform="matrix(1 0 0 1 0 606.614)" font-size="36" font-family="Complex_IV25" id="svg_23" y="-189.2923" x="-4.97253">
      <tspan y="-401.3021" x="42.7354 187.9594 321.84339 469.5874 618.59146 768.85549" id="svg_24">VIDGUK</tspan>
     </text>
    </g>
   </g>
  </g>
 </g>
</svg>