<svg version="1.2" xmlns="http://www.w3.org/2000/svg" viewBox="0 0 696 168" width="696" height="168">
	<title>logo</title>
	<defs>
		<clipPath clipPathUnits="userSpaceOnUse" id="cp1">
			<path d="m-83.97-189.29h853.23v606.61h-853.23z"/>
		</clipPath>
		<clipPath clipPathUnits="userSpaceOnUse" id="cp2">
			<path d="m264.23 86.67h92.71v-63.89h-92.71z"/>
		</clipPath>
		<clipPath clipPathUnits="userSpaceOnUse" id="cp3">
			<path d="m286.18 149.22h59.82v-77.7h-59.82z"/>
		</clipPath>
	</defs>
	<style>
		.s0 { fill: #26aae1 } 
		.s1 { fill: #ffde18 } 
		.s2 { fill: #ffffff } 
	</style>
	<g>
		<g id="svg_4">
			<g id="layer_1">
				<g id="Clip-Path: svg_5" clip-path="url(#cp1)">
					<g id="svg_5">
						<g id="svg_6" style="opacity: .66">
							<g id="Clip-Path: svg_7" clip-path="url(#cp2)">
								<g id="svg_7">
									<path id="svg_8" class="s0" d="m283.7 85.4q8.3-4.7 16.1-10.1c1.9-1.3 3.2-2.7 4.1-4.8 0.9-2 1.2-4.4 0.5-6.5q-0.8-2.5-2.5-4.4c-1.6-1.7-4.8-3.1-7.1-2.9q-3.4 0.3-6.8 0.6c-2.1 0.2-4.4 0.6-6.5 0.5q1.3 0.2 2.6 0.4-0.3-0.1-0.7-0.2l2.4 1q-0.1-0.1-0.3-0.2 1 0.8 2 1.6-0.2-0.2-0.4-0.5l1.6 2q-0.2-0.2-0.3-0.5l1 2.3q-0.3-0.8-0.4-1.6 0.2 1.3 0.3 2.6-0.7-6-0.7-12c0-1.8 0.2-3.6 0-5.4-0.2-2.3-0.6-4.3-1.9-6.3-1.3-2-3-3.2-4.9-4.6q1 0.7 2 1.5-0.6-0.5-1.1-1.1 0.7 1 1.5 2-0.4-0.7-0.8-1.4l1 2.4q-0.3-0.9-0.5-1.9 0.2 1.4 0.4 2.7-0.1-1 0-2-0.2 1.4-0.3 2.7 0.1-0.8 0.4-1.6l-1 2.4q0.3-0.7 0.8-1.4-0.8 1.1-1.6 2.1 0.6-0.7 1.3-1.3-1 0.8-2.1 1.6 0.8-0.5 1.6-0.9l-2.4 1q1.2-0.5 2.5-0.7-1.3 0.2-2.7 0.4 1.6-0.2 3.1 0-1.4-0.2-2.7-0.4c1.9 0.3 3.7 1 5.5 1.7q-1.2-0.5-2.4-1c1.6 0.6 3.2 1.3 4.5 2.2q-1-0.8-2-1.6c0.4 0.4 0.8 0.7 1.1 1.1l-1.5-2c0.2 0.4 0.4 0.7 0.5 1l-1-2.3c1.1 2.9 1.6 6.1 2.2 9.2q1 4.9 1.7 9.8-0.2-1.3-0.4-2.6 0.2 1.2 0.3 2.4 6.3-4.8 12.7-9.7-1.2-0.3-2.4-0.8l2.4 1q-3.4-1.4-6.2-3.6 1 0.8 2 1.5-0.7-0.5-1.3-1.1-1 7.9-2 15.8 1.2-0.6 2.4-1.1l-2.4 1c1.2-0.5 2.4-0.9 3.7-1.2q-1.3 0.2-2.6 0.4c0.9-0.1 1.7-0.1 2.5 0q-1.3-0.2-2.6-0.4 0.9 0.2 1.7 0.5l-2.4-1q0.8 0.3 1.5 0.9-1-0.8-2-1.6 0.5 0.5 0.9 1-0.8-1-1.5-2 0.3 0.5 0.6 1.2-0.5-1.2-1-2.4c0.6 1.5 0.8 3.2 1.3 4.7 1.3 3.7 3.4 6.7 6.8 8.9 2.2 1.3 4.8 2.1 7.3 2.5 2.9 0.5 5.8 0.8 8.7 0.7q-2.5-9.3-5.1-18.7-0.4 0.2-0.8 0.4l2.4-1q-3.1 1.3-6.5 1.8 1.3-0.2 2.7-0.4c-1.8 0.2-3.5 0.4-5.3 0.2q1.3 0.2 2.7 0.3c-0.5 0-0.8-0.1-1.2-0.3l2.4 1.1c-0.4-0.2-0.7-0.4-1-0.6l2 1.5q-0.2-0.2-0.4-0.4 0.7 1 1.5 2c-0.2-0.3-0.3-0.5-0.5-0.8q0.5 1.2 1 2.3-0.3-0.7-0.4-1.6 0.2 1.3 0.4 2.7c-0.2-1.3 0-2.5 0.1-3.8q-0.1 1.4-0.3 2.7 0.8-6.1 2.9-11.8-7.4 3-14.7 6c6.3 4.6 15.3 5.7 22.7 3.6 4.1-1.3 7.9-3.5 11-6.5 1.6-1.5 3-3.2 4.2-5 0.8-1.3 1.3-2.8 2.2-4.1q-0.8 1-1.6 2c0.3-0.3 0.5-0.6 0.8-0.9q-1 0.8-2 1.6c0.3-0.2 0.7-0.4 1-0.6l-2.4 1c4.2-1.7 8.7-2.8 13-3.7l-12.3-7q0.4 1.9 0.7 3.9-0.2-1.3-0.4-2.7c0.3 2 0.4 4.1 0.1 6.1q0.2-1.4 0.4-2.7-0.2 1.5-0.8 2.9 0.5-1.2 1-2.4-0.6 1.5-1.6 2.9 0.8-1.1 1.6-2.1c-0.9 1.1-1.8 2-2.9 2.8q1-0.8 2-1.5c-3.1 2.4-6.9 3.9-10.3 5.9-4.6 2.6-9.1 6.1-11.5 10.9-1.7 3.2-1.9 6.9 0 10.1 1.8 3.1 5 4.8 8.6 4.9 6.6 0.3 12.7-2.3 17.7-6.4 2.1-1.7 3.9-3.9 5.3-6.3 1.6-2.7 2.4-5.9 3.6-8.8l-1 2.4q0.7-1.7 1.8-3.1l-1.6 2q1.2-1.5 2.8-2.8l-2 1.6q1.1-0.8 2.3-1.4-7.4-5.7-14.7-11.3-1 4.3-1.9 8.7c-0.6 2.8-1 5.8-2 8.5q0.5-1.2 1-2.4-0.4 0.8-0.9 1.5l1.5-2q-0.6 0.7-1.3 1.3 1-0.8 2-1.5-1 0.6-2 1.1l2.4-1c-1.5 0.6-3.1 0.9-4.7 1.1q1.3-0.2 2.6-0.3-1.3 0.1-2.7 0.2c-2.7 0.2-5.2 1-7.1 3-1.7 1.7-3 4.5-2.9 7 0.1 2.6 0.9 5.3 2.9 7.1 1.9 1.7 4.4 3.1 7.1 2.9 3-0.2 6.2-0.4 9.1-1.4 4.4-1.4 8.1-3.9 10.6-7.8 2.1-3.2 2.6-7.1 3.4-10.8l2.2-9.9c0.8-4-0.3-8-3.6-10.5-3.3-2.6-7.5-2.7-11.1-0.8-3.7 1.9-6.6 4.8-8.9 8.1-2.1 2.9-2.9 6.4-4.2 9.7l1-2.4c-0.6 1.3-1.3 2.5-2.1 3.6l1.5-2q-1.2 1.6-2.8 2.8 1-0.8 2-1.6-1.7 1.3-3.5 2.1l2.4-1q-1.9 0.7-3.9 1.1 1.3-0.2 2.6-0.4-1.4 0.2-2.9 0.1 4.3 7.6 8.6 15.1 0.6-1 1.3-2l-1.6 2c0.9-1.1 1.9-2.1 3.1-3l-2.1 1.6c2.4-1.8 5-3.1 7.6-4.4 3.2-1.7 6.1-3.5 8.9-5.8 3.4-2.7 5.9-6.7 7-10.9 1.6-5.6 0.7-11.3-0.4-16.9-0.4-2.3-2.6-4.9-4.6-6-2.4-1.3-5-1.6-7.7-1-4.1 0.9-8.1 2-12 3.4-3.8 1.3-7 3.3-9.1 6.8-0.9 1.6-1.5 3.2-2.6 4.6q0.8-1 1.6-2-1.4 1.8-3.1 3.1l2-1.5q-1.6 1.2-3.5 2.1 1.2-0.5 2.4-1-2.1 0.8-4.3 1.2 1.3-0.2 2.7-0.4-2.4 0.3-4.8 0.1 1.3 0.1 2.6 0.3-2.4-0.3-4.6-1.3l2.4 1.1q-1.7-0.8-3.2-1.9c-2.5-1.8-6.2-1.6-8.9-0.5-3 1.3-4.7 3.5-5.8 6.5q-1.8 4.9-2.7 10.1c-0.8 5.1-1.5 10.4 1.2 15 6 10.4 20.3 7.2 29.2 3.2q1-0.8 2-1.5 1.5-1.4 2.1-3.3c0.9-2 1.2-4.4 0.5-6.5-1.3-4-5.1-7.5-9.6-7.3q-2.6 0.1-5.1-0.2 1.3 0.2 2.6 0.3c-1.6-0.2-3.3-0.5-4.9-1.2l2.4 1.1q-0.7-0.4-1.3-0.8l2 1.5c-0.3-0.2-0.6-0.4-0.8-0.7q0.8 1 1.6 2-0.5-0.7-0.9-1.5l1 2.4c-0.3-0.9-0.5-1.8-0.7-2.7-0.4-1.6-1-3.1-1.7-4.7-1.3-2.8-3.9-5.4-6.7-6.7-3.9-1.8-7.7-2.2-12-1.4-3 0.5-5.8 1.9-8.5 3.2-5.6 2.7-6.6 11.7-2.1 15.7 4.3 3.7 8.9 6.4 14.3 8.1 3.1 1 6.3 0.1 8.8-1.8 2.2-1.7 4.3-4.8 3.9-7.8-0.7-5.6-1.5-11.1-2.6-16.6-0.5-2.3-0.9-4.6-1.6-6.8-1.3-4.1-3.8-7.4-7.6-9.5-2.5-1.4-5.3-2.5-7.9-3.4-2.7-0.9-5.6-1.5-8.4-1.3-3.4 0.2-6.7 1-9.6 2.8-3.3 2.2-5.8 5.3-7 9.1-1 3.1-1 7 0 10.1 0.9 2.5 1.9 4.1 3.5 6.1 1.1 1.4 2.6 2.3 4 3.3q-1-0.7-2-1.5 0.3 0.2 0.5 0.4l-1.6-2q0.3 0.3 0.4 0.6-0.5-1.2-1-2.4 0.1 0.3 0.2 0.7-0.2-1.3-0.4-2.7c0.2 1.5 0 3.1 0 4.6q0 2.6 0.1 5.1 0.1 2.4 0.3 4.9c0.2 2.2 0.3 4.5 0.9 6.7 1.1 3.6 3.5 6.7 7 8.1 2.6 1.1 5 1.1 7.7 0.9q5.1-0.5 10.2-0.9-2.5-9.3-5.1-18.7-7.8 5.4-16 10.1c-4.6 2.6-6.5 9.2-3.6 13.7 2.9 4.6 8.8 6.3 13.6 3.6z"/>
								</g>
							</g>
						</g>
						<g id="svg_9" style="opacity: .68">
							<g id="Clip-Path: svg_10" clip-path="url(#cp3)">
								<g id="svg_10">
									<path id="svg_11" class="s1" d="m333.3 71.9c-4 1.4-7.3 4-9.3 7.8-1.4 2.6-2.3 5.5-3.4 8.2l1-2.4c-2.9 6.6-6.9 12.6-11.2 18.4-4.4 6.1-8.9 12.1-12.8 18.5q-3.6 5.8-6.6 11.9l18.3 2.4q-0.4-2.2-0.6-4.4 0.1 1.3 0.3 2.6-1.5-11.2-2.2-22.5-0.3-5.7-0.5-11.3c-0.1-3.6-0.4-7.4 0-11q-0.2 1.3-0.4 2.6c0.1-0.4 0.2-0.7 0.3-1l-1 2.3q0.1-0.1 0.2-0.3-0.8 1-1.6 2 0.2-0.2 0.5-0.4l-2 1.5c0.3-0.2 0.5-0.3 0.9-0.5l-2.4 1.1c3.5-1.4 7.5-2.1 11.2-2.6q-1.3 0.2-2.7 0.4 6.2-0.8 12.4-0.5-4.3-7.6-8.6-15.1-1.7 2.3-3.4 4.6 0.7-1.1 1.5-2.1-5.8 7.5-12.1 14.5c-1.8 2-3 4.4-3 7.1 0 2.5 1.1 5.4 3 7.1 1.9 1.7 4.4 3 7 2.9 2.6-0.1 5.3-1 7.1-2.9 6.1-6.7 11.8-13.8 17.2-21.1 2-2.8 1.6-7.3 0-10.1-1.9-3.1-5.1-4.8-8.7-4.9-6-0.3-11.9 0.2-17.8 1.3-2.6 0.4-5 1-7.5 1.7-2.3 0.7-4.5 1.8-6.2 3.4-2.2 2.1-3.4 4.8-3.8 7.7-0.3 2.9-0.2 5.9-0.2 8.8q0.1 4 0.3 7.9 0.3 8.1 1 16.2c0.6 6.8 1.5 13.5 2.5 20.3l1 2.4 1.6 2c1.5 1.5 3.5 2.4 5.7 2.7 3.7 0.5 8.2-1.2 10-4.7 3.8-7.7 8.3-15.1 13.3-22.1 4.6-6.5 9.7-12.8 13.7-19.7 2.6-4.4 4.4-9 6.3-13.7l-1 2.4c0.4-1 0.8-1.9 1.4-2.8l-1.5 2.1q0.5-0.7 1.1-1.2-1 0.8-2 1.5 0.5-0.3 1.1-0.6-1.2 0.5-2.4 1 0.2 0 0.4-0.1c2.4-0.8 4.6-2.3 5.9-4.6 1.3-2.1 1.8-5.3 1-7.7-0.7-2.4-2.2-4.7-4.6-6-2.2-1.2-5.1-1.9-7.7-1z"/>
								</g>
							</g>
						</g>
						<path id="svg_12" class="s2" d="m45.9 50.1c-7.3 1.1-14.5 3.8-20.8 7.6-3.1 1.8-5.9 3.9-8.7 6.2-2.5 2-5.1 4.1-7.1 6.6-1.9 2.4-3.3 5.2-3.8 8.3-0.2 1.2-0.3 2.5 0.1 3.7 0.4 1.4 1.1 2.6 1.8 3.8 1.4 2.4 3.6 4.5 6 5.9 1.6 0.9 2.9 1.3 4.6 1.7q1.9 0.5 3.7 1.4c9 4.8 9.7 17.3 5.2 25.4-1.4 2.3-3.2 4.2-5 6.2-2.1 2.5-4.2 5.1-6.7 7.2-5.6 4.6-13.2 5.7-19.3 9.3-2.8 1.6-5.4 3.3-8.3 4.6-2.9 1.4-6 2.5-9 3.8-5.4 2.2-11 4.7-15 9.1q-1.4 1.6-2.5 3.4c-0.4 0.7 0.7 1.4 1.1 0.7 3.2-5.3 8.6-8.4 14.1-10.9 5.6-2.5 11.6-4.4 17-7.6 1.4-0.8 2.7-1.8 4.2-2.6 1.7-0.9 3.4-1.6 5.2-2.3 3.2-1.3 6.5-2.5 9.5-4.1 5.6-3 9.4-8.3 13.4-12.9 5.9-6.7 7.3-18.1 2.1-25.6-1.3-1.8-2.9-3.3-4.8-4.5q-1.6-0.9-3.3-1.4c-1.6-0.5-3.1-0.7-4.6-1.5-2.8-1.4-5.1-3.5-6.7-6.2-0.7-1.2-1.5-2.6-1.7-3.9-0.2-1.6 0.2-3.4 0.7-4.8 2.1-6.4 8.3-10.7 13.4-14.6 5.9-4.6 13-7.8 20.3-9.7q2.6-0.7 5.2-1.1c0.8-0.2 0.5-1.4-0.3-1.2z"/>
						<path id="svg_13" class="s2" d="m46.1 51.6c6.1-0.5 12.2-0.3 18 1.6 2.6 0.8 5 3.2 6.4 5.4 2.3 3.5 3.4 7.6 3.6 11.8 0 2.1-0.1 4.2-0.3 6.3-0.3 2.2-0.5 4.4-1.5 6.5-0.8 1.8-2 3.3-3.4 4.6-1.5 1.6-2.9 3.3-4.7 4.5-3.2 2.3-5.7 5.5-8.4 8.4-2.6 2.7-5.4 5.7-9.1 6.9-1.6 0.5-3.8 0.7-5.4 0-1.9-0.8 0.1-3.4 0.9-4.3 2.9-3.3 6.6-5.2 10.8-6.3 9.8-2.5 20.2-2.2 30 0.4 4.6 1.2 9.1 2.8 13.6 4.5 4.5 1.6 9 3.6 13.8 4.4 4.6 0.9 9.3 0.8 14 0.3 4.9-0.5 9.6-1.7 14.5-2.2 5.1-0.5 10.2 0.1 15.3 0.9 4.7 0.7 9.2 2.7 13.6 4.4 4.6 1.7 9.1 3.5 13.9 4.9 1.9 0.5 4.1 1.3 6.1 1.2 1.6 0 3.3-0.6 4.6-1.6 1.3-0.9 2.2-2.1 2.7-3.5 0.2-0.8-1-1.1-1.2-0.3-0.7 2-2.6 3.4-4.5 3.9-2.2 0.7-4.6-0.2-6.7-0.8-5.1-1.3-9.9-3.2-14.8-5.1-4.7-1.8-9.3-3.7-14.3-4.4-5.1-0.8-10.3-1.4-15.4-0.8-5.2 0.6-10.2 1.9-15.4 2.3-5.2 0.4-10.4 0.3-15.4-1.1-4.9-1.4-9.6-3.4-14.4-5.1-4.8-1.7-9.7-3.3-14.7-4.2-5.1-1-10.3-1.3-15.5-0.9-4.8 0.3-9.9 1.1-14.3 3-3.3 1.4-6.9 4-8.6 7.2-0.6 1.1-0.9 2.6-0.1 3.8 0.9 1.1 3.4 1.2 4.7 1.1 3.6-0.2 6.7-2.4 9.3-4.8 3.1-2.9 5.8-6.2 8.8-9.2 1.5-1.5 3.4-2.6 4.9-4.2 1.4-1.4 2.9-2.8 4.1-4.4 2.7-3.4 3.3-7.6 3.6-11.8 0.3-4.2 0.1-8.5-1.4-12.4q-1.1-3-2.9-5.6c-0.9-1.2-2.1-2.1-3.3-3.1-0.9-0.7-1.7-1.3-2.8-1.7-1.4-0.5-2.9-0.8-4.4-1.1-2.9-0.7-6-0.9-9-1-1.8 0-3.6 0.2-5.3 0.4-0.8 0.1-0.8 1.3 0 1.2z"/>
						<path id="svg_14" class="s2" d="m72.8 45c8.4-6.1 19.7-6.7 29.8-6.8 5.5 0 12.2 0.2 16.7 4 1.8 1.4 3.2 3.3 4.8 5 1.8 1.9 3.8 3.5 5.8 5.2 4.2 3.6 8.5 7.2 12.1 11.5 1.7 2 3 4.3 4.6 6.3 1.5 1.8 3.2 3.4 5 4.7 3.9 3 8.4 4.8 12.9 6.6 2.7 1.1 5.2 2.6 7.7 4 1.8 1.1 3.8 1.9 5.7 2.8 3.8 1.9 8 3.7 11 6.7 4 4.1 5.6 9.4 5.7 15.1 0 0.8 1.2 0.8 1.2 0 0-4.8-1.1-9.5-3.8-13.4-2.5-3.4-5.8-5.5-9.5-7.4-4.1-2.2-8.2-4-12.2-6.2-4.6-2.7-9.8-4.3-14.5-6.9-2.2-1.3-4.3-2.7-6.1-4.5-2-1.9-3.4-4.2-5-6.4-3.4-4.6-7.6-8.4-11.9-12.1-2.2-1.8-4.5-3.6-6.5-5.5-1.8-1.7-3.3-3.7-5-5.5-4-3.8-9.4-4.8-14.7-5.1-6.1-0.4-12.3 0-18.4 0.9-5.7 0.9-11.3 2.5-16.1 5.9-0.6 0.4 0 1.5 0.7 1.1z"/>
						<path id="svg_15" class="s2" d="m76.5 41.6c-1.7 0.7-3.1 1.1-4.5 2.3-1.6 1.4-1.1 3.8 0.6 4.9 2.1 1.4 5.3 1.1 7.6 0.6 2.3-0.5 4.6-1.2 6.8-1.8 3.8-1 7.5-2.3 11.3-3.1 3.9-0.8 8-1.6 11.7-3 2.5-0.9 4.9-2 7.4-2.8 2.3-0.7 4.6-1.3 6.9-1.9 5.5-1.4 10.8-3.4 16.3-4.9 5.7-1.6 11.3-3.1 17.2-3.2 3.5-0.1 7-0.1 10.4 0.5 3.2 0.7 6.3 1.8 9.3 2.9 11.8 4.6 22.2 12.1 34 16.5 6.2 2.4 12.5 4.4 18.5 7.1 3 1.4 6 2.9 8.8 4.6 2.6 1.6 4.8 3.7 6.8 6 1.7 1.9 3.6 3.9 4.8 6.1 0.8 1.4 1.2 3 1.7 4.5 0.6 1.6 1.1 3.3 1.6 5 0.4 1.4 0.6 2.9 0.9 4.3 0.3 1.3 0.6 2.8-0.4 3.9-0.4 0.5-1.1 1.1-1.9 1.2-0.8 0.1-1.4-0.4-2-0.8-1.3-1.1-2.6-2.2-3.8-3.4-2.1-1.9-3.7-4.1-6.1-5.7-2.3-1.7-4.8-2.9-6.9-4.9-3.5-3.3-7.2-6.7-11.6-8.9-3.4-1.8-7.1-3.1-10.7-4.3-2.2-0.8-4.4-1.3-6.8-1.8-2.6-0.5-5.2-1.1-8-1.1-6.4-0.2-12.9 0.5-19.3 0.9-3.1 0.2-6.3 0.6-9.4 0.3-2.4-0.2-4.9-0.8-7.3-0.5-1.9 0.2-3.5 1-4.6 2.6-0.4 0.7 0.7 1.3 1.1 0.7 1.4-2.3 4-2.3 6.4-2 2.5 0.2 5 0.7 7.6 0.6 6.7-0.4 13.4-0.9 20.1-1.2 3-0.2 6-0.4 9 0.1 2.3 0.4 4.6 0.9 6.9 1.4 4.1 0.9 8.3 2.6 12.2 4.3 4 1.7 7.5 4.3 10.7 7.2 2.2 1.9 4.1 3.8 6.5 5.4 2.4 1.5 4.7 2.9 6.6 5.1 2.1 2.3 4.4 4.5 6.8 6.3 1.9 1.5 4.1 1 5.6-0.9 1.3-1.7 0.7-3.9 0.3-5.9-0.6-3.3-1.6-6.4-2.7-9.6-0.9-2.4-2-4.4-3.6-6.4-1.8-2.2-3.5-4.4-5.6-6.3-4.4-4.1-10.3-6.8-15.8-9.1-6.1-2.5-12.3-4.4-18.4-6.9-5.8-2.4-11.2-5.5-16.8-8.5-5.4-2.9-10.9-5.7-16.7-7.8-3.1-1.1-6.2-2.1-9.4-2.5-3.3-0.4-6.7-0.4-10-0.2-11.3 0.4-21.8 5.3-32.7 8.1-2.2 0.6-4.4 1.1-6.6 1.8-2.6 0.8-5 1.9-7.4 2.9-3.7 1.4-7.8 2.1-11.7 2.9-3.8 0.8-7.4 2.1-11.1 3.1-2.3 0.6-4.6 1.3-6.8 1.8-1.5 0.3-3 0.4-4.5 0.3-1.3 0-3.7-0.7-3.6-2.5 0.1-1.1 1.6-2 2.6-2.4 0.6-0.3 1.4-0.4 2-0.7 0.8-0.3 0.5-1.5-0.3-1.2z"/>
						<path id="svg_16" class="s2" d="m156.3 62.9c-1.6 1.6-3.2 4.8-2 7 0.9 1.5 2.6 1.8 4.2 1.8 4.6-0.2 9.3-2.7 13.9-1.6 1.3 0.4 2.4 1.1 3.5 1.8 1.4 0.9 2.8 1.8 4.2 2.7 2.6 1.9 5.1 4.1 6.6 7 2.5 4.8 4.8 9.7 7.1 14.6 2.3 4.7 4.5 9.4 7.4 13.9 1.3 2 3.2 5.5 6.1 5.4 4.7-0.2 2.8-7.3 2.1-10.1-1.9-7.4-4.4-14.6-6.5-22-2.2-7.7-4.3-15.8-4.5-23.8 0-1.7 0.1-3.9 1.7-4.9 1.7-1 3.8-0.2 5.1 1.1 2.5 2.7 3.2 7.3 3.6 10.8 0.4 3.9 0.3 7.8 0.3 11.7 0 3.7 0.4 7.3 1.4 10.9 1 3.5 2.3 6.8 3.6 10.1 1.3 3.2 2.5 6.4 3.7 9.6 0.8 1.8 1.6 3.8 3.2 5.1 1.5 1.2 4 2 5.9 1.9 2.4-0.2 3.6-2.3 3.9-4.4 0.4-2.1 0.7-4.2 0.9-6.3 0.2-3.2 0-6.5-0.2-9.7q-0.3-4.4-1-8.8c-0.7-5.4-1.7-10.7-2-16.2q-0.3-4.7 0-9.5 0.2-2.9 0.6-5.8c0.2-1.6 0.5-3.3 1.3-4.8 4.2-7.3 14.2 3.3 17.2 7 2.2 2.7 4.2 5.8 5.7 9q1.2 2.4 2.2 4.9c0.4 1.3 0.8 2.6 1.4 3.8 1.1 2.2 2.5 4.4 4.2 6.2 1.6 1.8 4.8 3 6.8 1.1 1.7-1.6 1.2-4.7 1.2-6.9 0-0.8-1.3-0.8-1.3 0 0 2.6 0.7 7.5-3.4 6.5-2.6-0.6-4.3-3.9-5.5-5.9-1.5-2.4-2.2-5.1-3.3-7.7-1.3-3.1-2.9-6.1-4.9-8.9-1.8-2.7-4-5.2-6.4-7.4-2.3-2.1-5-4.4-8.1-5.1-2.8-0.7-5.4 0.3-6.9 2.8-1.5 2.7-1.6 6.1-1.9 9.1q-0.7 8.9 0.4 17.8c0.7 5.3 1.7 10.6 2.2 16 0.5 5.6 0.7 11.3-0.1 16.9-0.4 2.3-0.9 5.4-4 5-2-0.4-4-1-5.2-2.8-1.5-2-2.2-4.6-3-6.8-1.3-3.4-2.7-6.8-4-10.2-1.2-3.2-2.3-6.6-2.9-10-0.6-3.8-0.4-7.7-0.5-11.6 0-3.5-0.1-7.1-0.9-10.6-0.6-3-1.6-6.5-4.2-8.4-2-1.5-5.2-1.7-6.9 0.5-1.8 2.4-1.1 6.1-0.8 8.9 0.8 7.8 2.8 15.4 5 22.9q1.7 5.8 3.5 11.6c0.8 2.9 1.8 5.9 2.5 8.9 0.4 1.8 1.3 4.8 0.2 6.5-0.8 1.1-2.3 0.8-3.1 0.1-1.3-1-2.3-2.5-3.2-3.9-1.2-1.9-2.4-4-3.5-6.1-2.6-4.8-4.9-9.9-7.3-14.8q-1.6-3.5-3.3-6.8c-1.3-2.6-3-4.7-5.2-6.6-2.3-2-5-3.6-7.6-5.2-2-1.2-4-1.6-6.2-1.5-2.4 0.1-4.7 0.7-7 1.2-1.8 0.3-4.2 1-5.9 0.3-2.6-1.2-0.6-5.1 0.8-6.4 0.6-0.5-0.3-1.4-0.9-0.9z"/>
						<path id="svg_17" class="s2" d="m269.1 76.1q-1.3-8.3-1.9-16.7c-0.4-5-0.7-10-0.4-14.9 0.2-4.1 0.9-8.2 2.9-11.8 2-3.8 5.5-6.4 9.7-7.2 2.3-0.5 4.7-0.5 7-0.4 2.4 0.2 5 0.5 7.2 1.3 2.6 0.9 4.4 2.6 6.2 4.5 1.7 2 3.4 4 5.1 6 3.3 4 7 7.8 9.8 12.2 1.2 1.8 2.2 3.9 2.6 6.1 0.2 1 0.4 2.5 0.1 3.5-0.5 1.6-2.5 1.5-3.6 0.8-3.7-1.8-3.4-6.6-2.9-10 0.4-2.3 1-4.3 2.4-6.3 1-1.4 2.2-2.9 3.5-4.1 2-1.9 4.3-3.6 6.4-5.4 2.4-1.9 4.8-3.8 7.3-5.4 4-2.5 8.9-4.7 13.7-3.8 4.3 0.8 8.3 3.4 11.3 6.5 1.7 1.6 2.9 3.5 3.5 5.8 0.5 2.2 0.5 4.6 0.4 6.8-0.3 4.8-1.3 9.4-2.8 13.9-3.1 9.2-8 17.6-13 25.8-5.1 8.5-10.5 16.9-15.2 25.6-0.8 1.6-1.7 3.4-3.2 4.7-0.6 0.5 0.3 1.4 0.9 0.9 1.6-1.4 2.6-3.4 3.5-5.2 1.2-2.2 2.4-4.4 3.7-6.5q4.5-7.5 9-15c5.6-9.1 11.3-18.3 14.9-28.3 1.8-4.8 3-9.8 3.3-14.8 0.4-4.6 0.3-9.6-2.9-13.3-2.9-3.4-7-6.3-11.3-7.7-4.7-1.5-9.5-0.2-13.7 2-3.2 1.7-6.1 3.9-9 6.1-2.5 2-5.2 4.1-7.5 6.3-1.4 1.3-2.6 2.7-3.7 4.2-1.4 1.9-2.1 3.9-2.6 6.3-0.6 3.6-1 7.8 1.6 10.6 1.2 1.4 3 2.3 4.8 2 2.4-0.4 2.7-2.5 2.6-4.6-0.3-4.9-3.4-9-6.4-12.6q-5.6-6.9-11.5-13.6c-1.7-2-3.5-3.8-6-4.9-2.2-0.9-4.6-1.2-7-1.5-4.8-0.5-10-0.3-14.2 2.4-3.5 2.3-5.6 5.9-6.8 9.8-1.3 4.3-1.5 8.9-1.4 13.3 0.1 6.2 0.5 12.3 1.2 18.4q0.5 4.3 1.2 8.5c0.1 0.8 1.3 0.5 1.2-0.3z"/>
						<path id="svg_18" class="s2" d="m329.4 107c-4.7 8.6-11.6 15.8-16.6 24.2-1.8 3-3.9 5.8-6.2 8.4-1.7 1.8-5.3 5.9-8.1 4.4-1.2-0.7-2.1-2.2-2.8-3.4-0.9-1.6-1.6-3.4-2.2-5.1-1.2-3.6-1.9-7.1-2.6-10.8-0.6-4-1.3-8-1.4-12-0.2-4 0.3-7.9 0.3-11.9 0-3.1-0.2-6.1-0.1-9.2 0-1.6 0-3.2 0.1-4.8 0.1-0.9 0.1-2.2 0.6-3 0.5-0.8 1.7-1.3 2.6-1.6 1.3-0.4 2.7-0.7 4.1-1 3.5-0.6 7.1-0.8 10.7-0.9q4.5-0.1 9.1 0.1c4 0.2 7.9 0.6 11.9 0.4 8.5-0.5 16.5-4 24.6-6.4 5.5-1.7 11.1-3.4 16.5-5.7 4.7-2 9.7-3.2 14.5-5 2.1-0.8 4-1.8 6-2.8 2.1-1 4.2-1.8 6.3-2.6 4.7-1.7 9.4-3.1 14.1-4.5 4.6-1.3 9.2-2.6 13.7-4 5-1.6 9.9-3.6 14.7-5.5 10.3-4.1 20.4-8.5 30.6-12.8 10.3-4.3 20.8-8 31.1-12.4 9.7-4.1 19.6-8.3 30.3-8.8 9.4-0.4 22 1.7 24.8 12.4 0.6 2.2 0.5 4.5-0.3 6.6-0.9 2.4-3 3.9-4.4 5.9-2.1 3.3-4.1 6.6-6.2 9.8-7.4 10.7-16.5 20.2-25.8 29.2-1.5 1.5-2.8 2.7-4.7 3.6-3.1 1.4-6.4 2.6-9.7 3.6-8.1 2.3-15.7-2.8-23.3-5-4-1.1-8.2-1.5-12.2 0-0.8 0.3-0.4 1.5 0.3 1.2 9.3-3.4 18.1 3.4 27 5.2 3.4 0.8 6.5 0.4 9.8-0.6 3.3-1.1 6.6-2.2 9.7-3.8 1.8-0.9 3.2-2.5 4.6-4q3.7-3.6 7.4-7.3c4.8-4.9 9.3-10.2 13.6-15.6q2.8-3.6 5.4-7.4 1.6-2.4 3.1-4.9 0.9-1.4 1.7-2.8c0.9-1.3 1.8-2.3 2.8-3.4 3-3.3 3.5-7.8 2-11.9-1.6-4.3-5-7.6-9.1-9.5-4.7-2.1-9.9-2.7-14.9-2.6-5.3 0.1-10.6 1-15.7 2.5-5 1.6-9.9 3.6-14.7 5.6q-7.9 3.4-15.9 6.4c-10.8 4.1-21.5 8.7-32.1 13.2-10.4 4.4-20.8 8.9-31.6 12.3-9.5 2.9-19.3 5.3-28.6 9-4.5 1.7-8.7 4.1-13.2 5.6-2.6 0.8-5.1 1.5-7.7 2.4-2.6 0.9-5.1 2.1-7.7 3.1-5.6 2.1-11.4 3.7-17.1 5.5-4.2 1.3-8.3 2.9-12.6 3.9-4.3 1-8.7 1.3-13.2 1-3.2-0.1-6.4-0.4-9.6-0.5-3.6 0-7.2 0-10.8 0.3-3.2 0.3-6.5 0.6-9.6 1.7-2 0.7-3.5 1.6-3.9 3.8-0.6 3.2-0.4 6.5-0.4 9.7 0.1 3 0.2 6 0 8.9-0.2 4.3-0.4 8.6 0.1 12.8 0.4 4.4 1.1 8.7 2 13 0.7 3.4 1.7 6.9 3.2 10.1 1 2.3 2.7 5.9 5.6 6.2 3.1 0.3 6-2.7 7.9-4.7 2.4-2.6 4.6-5.5 6.4-8.6 2.6-4.2 5.6-8.2 8.6-12.2 2.9-4 5.9-8 8.3-12.4 0.4-0.7-0.7-1.3-1.1-0.6z"/>
						<path id="svg_19" class="s2" d="m414.9 91c-1.9 0.2-5.7 0.2-6.7-1.8-0.8-1.2-0.1-3 0.7-4.1 0.7-0.9 1.8-1.5 2.7-2.3 2-1.8 5.1-2.4 7.6-3.4 1.2-0.5 2.5-1 3.7-1.7 1.2-0.7 2-1.9 3.1-2.8 2.7-2.2 6.3-2.4 9.5-3.6 3.5-1.3 6.8-3.6 10-5.6 2.1-1.2 4-2.7 6-4 1.2-0.8 2.5-1.5 3.8-2.3 1.9-1.2 3.8-2.6 5.5-4.2 1.3-1.2 3.5-3.3 3.1-5.4-0.4-2.6-4.5-2.5-6.5-2.5-0.8 0.1-0.8 1.3 0 1.3 1.4 0 6.1-0.2 5.2 2.3-0.7 2-2.9 3.7-4.5 4.9-1.8 1.5-3.8 2.6-5.7 3.9-2.1 1.2-4 2.6-5.9 3.9-1.7 1.1-3.4 2.1-5.2 3.1-1.7 1.1-3.4 2.2-5.3 3-1.7 0.8-3.4 1.2-5.1 1.7-1.5 0.3-3 0.8-4.3 1.6q-1 0.6-1.9 1.4c-0.7 0.6-1.2 1.3-1.9 1.8-0.9 0.8-2.3 1.3-3.4 1.8-1.5 0.6-3 1.1-4.4 1.7-1.2 0.4-2.3 0.9-3.4 1.5-1 0.7-2 1.6-3 2.5-1.8 1.5-2.9 4.9-1 6.8 1.7 1.8 5 2 7.3 1.8 0.8-0.1 0.9-1.3 0-1.3z"/>
						<path id="svg_20" class="s2" d="m469.2 76.5c-4.3 2.1-7.4 6-11.7 8.2-2 1-4.3 1.4-6.4 2-2 0.6-4 1.3-6.1 1.9-1.3 0.3-2.7 0.7-4.1 0.7-1.9-0.1-3.8 0.1-5.7 0.2q-5.1 0.4-10.1 1.1c-2.1 0.2-4.2 0.6-6.3 0.7-1.5 0.1-3-0.1-4.6-0.2-0.8-0.1-0.8 1.2 0 1.2 1.4 0.2 2.9 0.3 4.3 0.3 1.5-0.1 3-0.3 4.5-0.5 3.7-0.5 7.4-0.9 11.1-1.2 2-0.2 4.1-0.4 6.1-0.4 1.4 0 2.6-0.1 4-0.4 2-0.5 4-1.2 6-1.8 2-0.6 4.1-1 6-1.7 5.3-1.9 8.7-6.6 13.7-9.1 0.7-0.3 0-1.4-0.7-1z"/>
						<path id="svg_21" class="s2" d="m463.3 48.9c-3-2.6-8.2-1.3-11.5-0.1-3.2 1.2-6 3.3-9 4.9q-4.2 2.2-8.7 3.8c-10.1 3.7-20.9 4.4-31.5 6.2-6.4 1-12.7 2.7-19 4.4-6.2 1.7-12.5 3.7-18.3 6.6-2.3 1.2-5.2 2.5-6.8 4.6-1 1.5-2.4 3.5-1.3 5.3 1.2 1.9 3.8 2.6 5.8 2.8 3.2 0.3 6.5 0.1 9.6-0.5 6.6-1.2 12.7-4 18.7-6.7 5.5-2.5 11.1-5.4 17.3-5.4 2.7 0 5.5 0.7 7.6 2.6 2.3 2.1 3.1 5.2 3.6 8.2 1.1 6.7 1.9 13.4 2.9 20.1 1.9 13.2 4.5 26.4 9.9 38.6 2.2 5 4.9 11.3 10.3 13.7 1.8 0.8 4.6 1.1 6.2-0.4 0.9-1 1.6-2.8 2.1-4q0.9-2.3 1.3-4.8c0.7-5.7-1.4-11.2-3.5-16.5-1.1-3-2.1-6-3.1-9-1.2-3.3-2.2-6.7-2-10.2 0.3-6.7 3.9-12.7 7.5-18.1 0.9-1.3 1.8-2.7 2.8-3.9 1.4-1.6 3.4-1.6 4.5 0.3 0.9 1.6 0.5 3.4 0 5-0.7 1.8-1.6 3.5-2.3 5.2-4.7 11.4-7 25.6 0.8 36.2 2.8 3.8 8.3 8.1 12.7 3.9 3.5-3.4 3.2-9.3 3.1-13.7q-0.1-11.6-0.2-23.2c-0.1-5.8-0.7-13.6 4-17.9 1.8-1.7 4.4-2.6 6.9-2.4 2 0.2 5 1.7 4.6 4.2-0.4 2.2-2.3 4.3-3.6 6.1-1.6 2.1-2.8 4.3-3.7 6.9-0.8 2.2-1.2 4.6-1.3 7 0 1.7 0.2 3.4 0.1 5.1-0.2 5.6-1.3 12.4 2.2 17.3 2.4 3.4 7.5 6 11.5 3.6 4.5-2.6 3.9-8.3 3.1-12.7-0.4-2.8-1-5.6-0.8-8.5 0.2-2.8 1.2-5.5 2.6-7.9 2.9-5.1 7.5-9 12.5-11.9 10.8-6.3 23.8-7.9 34-15.4 5.2-3.7 9-8.7 12.9-13.5 3.9-5 8.2-9.4 13.5-12.9 10-6.7 21.7-10 33.4-12.3 5.7-1.1 11.4-1.9 17.2-2.7 0.8-0.1 0.4-1.3-0.3-1.2-11.8 1.6-23.6 3.4-34.9 7.3-10.9 3.8-20.6 9.8-28.1 18.8-4.1 4.9-7.8 10.2-12.7 14.2-5 4.1-11 6.6-17 8.9-10.7 3.9-22.2 7.5-29.5 16.9-3.2 4.1-5.2 9.1-4.9 14.4 0.2 2.6 0.8 5.1 1.2 7.7 0.3 2.5 0.6 5.4-0.7 7.6-3.1 5.3-10.1 2.3-12.5-1.9-3-5.3-1.2-11.5-1.4-17.2-0.1-1.8-0.2-3.6 0-5.4 0.3-3 1.3-5.9 2.7-8.5 1-2.1 2.6-3.8 3.9-5.8 1-1.4 2.2-3.4 1.8-5.3-0.3-1.8-2.1-3.2-3.8-3.7-2-0.7-4.2-0.6-6.2 0.2-5.1 1.8-7.2 6.9-7.7 11.9-0.4 3.2-0.3 6.4-0.3 9.5q0.1 5.6 0.2 11.1 0 5.8 0.1 11.6c0 2.7 0.1 5.4-0.5 8.1-0.5 2.2-1.5 4.6-3.6 5.6-3.3 1.5-6.6-1.1-8.6-3.5-4-4.8-5.8-11.2-5.8-17.4 0-6.9 2.1-13.7 4.8-20 1.1-2.6 3-5.7 2.3-8.7-0.6-2-2.6-4-4.8-3.4-2.5 0.6-4 3.8-5.3 5.7-1.8 2.7-3.5 5.5-4.9 8.4-2.6 5.7-3.5 11.6-1.8 17.7 1.7 6 4.3 11.6 6.2 17.5 1.9 5.9 2.4 12.6-1.3 18.1-1.9 2.8-5.8 0.7-7.7-1-2.3-2-3.8-4.6-5.2-7.3-3-6-5.3-12.3-7-18.7-3.5-12.8-5.1-26.1-6.9-39.2-0.8-5.3-1.2-11.7-6.4-14.7-4.4-2.6-10.1-1.7-14.7-0.2-6.1 1.9-11.8 5.1-17.8 7.5-6 2.3-12.3 4.2-18.9 3.7-2.2-0.1-7.1-1.1-5.4-4.4 0.4-0.8 1-1.9 1.7-2.5 1.1-1.1 2.8-1.9 4.1-2.6 5.9-3.3 12.3-5.4 18.8-7.2 6-1.6 12.1-3.2 18.3-4.4 5.3-0.9 10.6-1.5 15.9-2.3 5.2-0.7 10.3-1.8 15.3-3.4 5.9-2 11.5-4.8 16.8-8.1 2.4-1.5 5.6-2.5 8.5-2.6 1.5 0 3.3 0.1 4.5 1.1 0.6 0.5 1.5-0.4 0.9-0.9z"/>
						<path id="svg_22" class="s2" d="m621.7 36.9c12.4 0.2 24.7 1.2 37.1 1.3 5.9 0 11.8-0.2 17.7-0.9q4.6-0.5 9.2-1.4c3-0.6 5.9-1.6 8.9-2.1 5.5-1 11.6-0.1 16.6-2.8 0.7-0.4 0.1-1.5-0.6-1.1-4.5 2.4-10.1 1.8-15 2.5-2.8 0.4-5.5 1.2-8.2 1.8q-4.8 1.1-9.6 1.7c-11.5 1.5-23.1 1.1-34.7 0.5-7.1-0.3-14.2-0.7-21.4-0.8-0.8 0-0.8 1.3 0 1.3z"/>
					</g>
				</g>
			</g>
		</g>
	</g>
</svg>